<svg width="560" height="560" viewBox="0 0 560 560" fill="none" xmlns="http://www.w3.org/2000/svg">
<path d="M330.583 339.212V455.423C330.565 504.786 291.124 544.798 242.464 544.816C238.096 544.822 233.734 544.463 229.423 543.743C229.335 543.833 229.247 543.833 229.07 543.743C186.096 537.034 154.368 499.532 154.346 455.423V339.212H330.583Z" fill="#01C6E3"/>
<path d="M304.147 339.212V455.423C304.126 499.532 272.397 537.034 229.423 543.743C229.335 543.833 229.247 543.833 229.07 543.743C186.096 537.034 154.368 499.532 154.346 455.423V339.212H304.147Z" fill="#02B9D4"/>
<path d="M330.583 97.8497H154.346V357.09H330.583V97.8497Z" fill="#9FC9D3"/>
<path d="M304.147 97.8497H154.346V357.09H304.147V97.8497Z" fill="#02B9D4"/>
<path d="M348.207 35.2745V79.9712C348.178 89.8333 340.304 97.8209 330.583 97.8498H154.346C144.624 97.8209 136.751 89.8333 136.722 79.9712V35.2745C136.736 30.3434 140.673 26.3494 145.534 26.3352H339.395C344.256 26.3494 348.193 30.3434 348.207 35.2745Z" fill="#02B9D4"/>
<path d="M321.771 35.2745V79.9712C321.742 89.8333 313.869 97.8209 304.147 97.8498H154.346C144.624 97.8209 136.751 89.8333 136.722 79.9712V35.2745C136.736 30.3434 140.673 26.3494 145.534 26.3352H312.959C317.82 26.3494 321.757 30.3434 321.771 35.2745Z" fill="#01C6E3"/>
<path d="M216.029 500.119H198.405C193.538 500.119 189.593 496.117 189.593 491.18C189.593 486.243 193.538 482.241 198.405 482.241H207.217V142.546H198.405C193.538 142.546 189.593 138.544 189.593 133.607C189.593 128.67 193.538 124.668 198.405 124.668H216.029C220.895 124.668 224.841 128.67 224.841 133.607V491.18C224.841 496.117 220.895 500.119 216.029 500.119Z" fill="#0195AB"/>
<path d="M216.029 187.243H198.405C193.538 187.243 189.593 183.241 189.593 178.304C189.593 173.367 193.538 169.364 198.405 169.364H216.029C220.895 169.364 224.841 173.367 224.841 178.304C224.841 183.241 220.895 187.243 216.029 187.243Z" fill="#0195AB"/>
<path d="M216.029 231.94H198.405C193.538 231.94 189.593 227.937 189.593 223C189.593 218.063 193.538 214.061 198.405 214.061H216.029C220.895 214.061 224.841 218.063 224.841 223C224.841 227.937 220.895 231.94 216.029 231.94Z" fill="#0195AB"/>
<path d="M216.029 276.636H198.405C193.538 276.636 189.593 272.634 189.593 267.697C189.593 262.76 193.538 258.758 198.405 258.758H216.029C220.895 258.758 224.841 262.76 224.841 267.697C224.841 272.634 220.895 276.636 216.029 276.636Z" fill="#0195AB"/>
<path d="M216.029 321.333H198.405C193.538 321.333 189.593 317.331 189.593 312.394C189.593 307.457 193.538 303.454 198.405 303.454H216.029C220.895 303.454 224.841 307.457 224.841 312.394C224.841 317.331 220.895 321.333 216.029 321.333Z" fill="#0195AB"/>
<path d="M216.029 366.03H198.405C193.538 366.03 189.593 362.027 189.593 357.09C189.593 352.153 193.538 348.151 198.405 348.151H216.029C220.895 348.151 224.841 352.153 224.841 357.09C224.841 362.027 220.895 366.03 216.029 366.03Z" fill="#0195AB"/>
<path d="M216.029 410.726H198.405C193.538 410.726 189.593 406.724 189.593 401.787C189.593 396.85 193.538 392.848 198.405 392.848H216.029C220.895 392.848 224.841 396.85 224.841 401.787C224.841 406.724 220.895 410.726 216.029 410.726Z" fill="#0195AB"/>
<path d="M216.029 455.423H198.405C193.538 455.423 189.593 451.421 189.593 446.484C189.593 441.546 193.538 437.544 198.405 437.544H216.029C220.895 437.544 224.841 441.546 224.841 446.484C224.841 451.421 220.895 455.423 216.029 455.423Z" fill="#0195AB"/>
<path d="M431.042 43.7033L419.117 92.0919L392.495 92.0919L380.57 43.7033C378.633 35.8296 380.375 27.4894 385.293 21.0895C390.212 14.6896 397.76 10.942 405.76 10.9284L405.852 10.9284C413.851 10.9449 421.397 14.6932 426.316 21.0923C431.234 27.4914 432.977 35.8299 431.042 43.7033Z" fill="#BDC3C7"/>
<path d="M421.798 53.0809L412.184 92.0918L392.495 92.0918L380.57 43.7032C378.888 37.0253 379.885 29.943 383.343 24.0102C387.324 21.5919 391.876 20.3119 396.516 20.306L396.608 20.306C404.607 20.3225 412.153 24.0707 417.072 30.4698C421.99 36.869 423.733 45.2075 421.798 53.0809Z" fill="#E6E7E8"/>
<path d="M393 92H420V518.5C420 525.956 413.956 532 406.5 532V532C399.044 532 393 525.956 393 518.5V92Z" fill="#02B9D4"/>
</svg>
