<svg width="322" height="539" viewBox="0 0 322 539" fill="none" xmlns="http://www.w3.org/2000/svg">
<path d="M194.207 334.971V449.73C194.189 498.476 154.677 537.988 105.931 538.006C101.555 538.011 97.1849 537.657 92.8663 536.947C92.778 537.035 92.6898 537.035 92.5132 536.947C49.4624 530.321 17.6771 493.288 17.6553 449.73V334.971H194.207Z" fill="#01C6E3"/>
<path d="M167.724 334.971V449.73C167.702 493.288 135.917 530.321 92.8663 536.947C92.778 537.035 92.6898 537.035 92.5132 536.947C49.4624 530.321 17.6771 493.288 17.6553 449.73V334.971H167.724Z" fill="#02B9D4"/>
<path d="M194.207 96.6266H17.6553V352.627H194.207V96.6266Z" fill="#9FC9D3"/>
<path d="M167.724 96.6266H17.6553V352.627H167.724V96.6266Z" fill="#02B9D4"/>
<path d="M211.862 34.8336V78.9715C211.833 88.7103 203.946 96.5981 194.207 96.6267H17.6552C7.91636 96.5981 0.0286031 88.7103 0 78.9715V34.8336C0.0140606 29.9641 3.95808 26.02 8.82759 26.006H203.034C207.904 26.02 211.848 29.9641 211.862 34.8336Z" fill="#02B9D4"/>
<path d="M185.379 34.8336V78.9715C185.351 88.7103 177.463 96.5981 167.724 96.6267H17.6552C7.91636 96.5981 0.0286031 88.7103 0 78.9715V34.8336C0.0140606 29.9641 3.95808 26.02 8.82759 26.006H176.552C181.421 26.02 185.365 29.9641 185.379 34.8336Z" fill="#01C6E3"/>
<path d="M79.4483 493.868H61.7932C56.9178 493.868 52.9656 489.916 52.9656 485.04C52.9656 480.165 56.9178 476.213 61.7932 476.213H70.6207V140.765H61.7932C56.9178 140.765 52.9656 136.812 52.9656 131.937C52.9656 127.062 56.9178 123.109 61.7932 123.109H79.4483C84.3237 123.109 88.2759 127.062 88.2759 131.937V485.04C88.2759 489.916 84.3237 493.868 79.4483 493.868Z" fill="#0195AB"/>
<path d="M79.4483 184.902H61.7932C56.9178 184.902 52.9656 180.95 52.9656 176.075C52.9656 171.2 56.9178 167.247 61.7932 167.247H79.4483C84.3237 167.247 88.2759 171.2 88.2759 176.075C88.2759 180.95 84.3237 184.902 79.4483 184.902Z" fill="#0195AB"/>
<path d="M79.4483 229.04H61.7932C56.9178 229.04 52.9656 225.088 52.9656 220.213C52.9656 215.337 56.9178 211.385 61.7932 211.385H79.4483C84.3237 211.385 88.2759 215.337 88.2759 220.213C88.2759 225.088 84.3237 229.04 79.4483 229.04Z" fill="#0195AB"/>
<path d="M79.4483 273.178H61.7932C56.9178 273.178 52.9656 269.226 52.9656 264.351C52.9656 259.475 56.9178 255.523 61.7932 255.523H79.4483C84.3237 255.523 88.2759 259.475 88.2759 264.351C88.2759 269.226 84.3237 273.178 79.4483 273.178Z" fill="#0195AB"/>
<path d="M79.4483 317.316H61.7932C56.9178 317.316 52.9656 313.364 52.9656 308.489C52.9656 303.613 56.9178 299.661 61.7932 299.661H79.4483C84.3237 299.661 88.2759 303.613 88.2759 308.489C88.2759 313.364 84.3237 317.316 79.4483 317.316Z" fill="#0195AB"/>
<path d="M79.4483 361.454H61.7932C56.9178 361.454 52.9656 357.502 52.9656 352.627C52.9656 347.751 56.9178 343.799 61.7932 343.799H79.4483C84.3237 343.799 88.2759 347.751 88.2759 352.627C88.2759 357.502 84.3237 361.454 79.4483 361.454Z" fill="#0195AB"/>
<path d="M79.4483 405.592H61.7932C56.9178 405.592 52.9656 401.64 52.9656 396.765C52.9656 391.889 56.9178 387.937 61.7932 387.937H79.4483C84.3237 387.937 88.2759 391.889 88.2759 396.765C88.2759 401.64 84.3237 405.592 79.4483 405.592Z" fill="#0195AB"/>
<path d="M79.4483 449.73H61.7932C56.9178 449.73 52.9656 445.778 52.9656 440.902C52.9656 436.027 56.9178 432.075 61.7932 432.075H79.4483C84.3237 432.075 88.2759 436.027 88.2759 440.902C88.2759 445.778 84.3237 449.73 79.4483 449.73Z" fill="#0195AB"/>
<path d="M294.845 43.157L282.899 90.9408L256.229 90.9408L244.284 43.157C242.342 35.3818 244.087 27.1458 249.015 20.8259C253.942 14.506 261.504 10.8053 269.518 10.7919L269.611 10.7919C277.624 10.8081 285.184 14.5095 290.11 20.8287C295.037 27.1478 296.784 35.3821 294.845 43.157Z" fill="#BDC3C7"/>
<path d="M285.585 52.4174L275.954 90.9407L256.229 90.9407L244.284 43.1569C242.598 36.5625 243.597 29.5687 247.062 23.7101C251.05 21.322 255.61 20.058 260.258 20.0522L260.35 20.0522C268.363 20.0685 275.923 23.7699 280.85 30.089C285.777 36.4081 287.523 44.6424 285.585 52.4174Z" fill="#E6E7E8"/>
<path d="M256.034 92H283.034V518.5C283.034 525.956 276.99 532 269.534 532V532C262.078 532 256.034 525.956 256.034 518.5V92Z" fill="#02B9D4"/>
</svg>
